<?xml version="1.0" encoding="utf-8" ?>
<svg baseProfile="full" height="300mm" version="1.1" viewBox="0,0,200,300" width="200mm" xmlns="http://www.w3.org/2000/svg" xmlns:ev="http://www.w3.org/2001/xml-events" xmlns:xlink="http://www.w3.org/1999/xlink"><defs /><rect fill="#222222" height="300" width="200" x="0" y="0" /><text fill="#FFFFFF" style="font-size:12px; font-family:Arial; font-weight:bold;" x="10" y="20">T3</text><text fill="#FFFFFF" style="font-size:4px; font-family:Arial" x="10" y="280">ATHLETE</text><text fill="#FFFFFF" style="font-size:9px; font-family:Arial" x="10" y="290">T4</text><text fill="#FFFFFF" style="font-size:4px; font-family:Arial" x="120" y="280">STATISTICS</text><text fill="#FFFFFF" style="font-size:3px; font-family:Arial" x="120" y="285">Number: 3</text><text fill="#FFFFFF" style="font-size:3px; font-family:Arial" x="120" y="290">Weekly: 1.5</text><text fill="#FFFFFF" style="font-size:3px; font-family:Arial" x="141" y="285">Total: 21.7 km</text><text fill="#FFFFFF" style="font-size:3px; font-family:Arial" x="141" y="290">Avg: 7.2 km</text><text fill="#FFFFFF" style="font-size:3px; font-family:Arial" x="167" y="285">Min: 2.4 km</text><text fill="#FFFFFF" style="font-size:3px; font-family:Arial" x="167" y="290">Max: 9.7 km</text><polyline fill="none" points="55.87120644003153,114.98734612995759 75.03774815052748,99.6077042343095 75.03774815052748,49.36719246720895 54.128793558105826,34.5 35.39785506762564,48.85453143436462 34.52664862573147,100.120359770488 54.56439677812159,115.5 74.60214493051171,100.6330152489245 75.03774815052748,49.36719246720895 56.30680966190994,34.5 35.39785506762564,48.85453143436462 34.52664862573147,99.09504864457995 52.38638067431748,114.98734612995759 72.85973204672337,104.22160204965621 75.90895459242165,53.98113925382495 69.37490628100932,40.65194737398997 48.465951688587666,35.52532511902973 34.52664862573147,52.4431574922055 35.39785506762564,102.68363661179319 44.981125922873616,112.93673009891063 59.79163542762399,114.47469220589846 75.03774815052748,98.06973729562014 74.60214493051171,48.34187034610659 54.128793558105826,34.5 34.96225184760988,49.87985344231129 34.52664862573147,100.120359770488 54.128793558105826,114.98734612995759 74.60214493051171,100.120359770488 75.03774815052748,49.36719246720895 55.0,34.5 35.39785506762564,48.85453143436462 34.52664862573147,100.120359770488 54.128793558105826,114.98734612995759 74.60214493051171,101.14567067148164 75.47335137054324,51.41783603839576 56.7424128819257,34.5 35.833458287641406,47.3165480052121 34.52664862573147,99.09504864457995 52.82198389619589,114.98734612995759 66.32568373717368,111.9114217478782 74.60214493051171,100.120359770488 75.03774815052748,49.87985344231129 55.0,34.5 35.39785506762564,48.85453143436462 34.52664862573147,100.120359770488 54.128793558105826,114.98734612995759 74.60214493051171,100.120359770488 75.47335137054324,51.41783603839576 56.30680966190994,34.5 35.833458287641406,47.3165480052121 34.52664862573147,99.09504864457995 52.82198389619589,114.98734612995759 74.16654171049595,101.65832604002208 75.47335137054324,50.39251436246559 55.0,34.5 35.39785506762564,48.85453143436462 34.52664862573147,100.120359770488 53.69319033809006,114.98734612995759 74.60214493051171,100.6330152489245 75.47335137054324,51.41783603839576 56.30680966190994,34.5 35.833458287641406,47.3165480052121 34.52664862573147,99.09504864457995 52.82198389619589,114.98734612995759 74.16654171049595,101.65832604002208 75.47335137054324,50.39251436246559 55.0,34.5 35.39785506762564,48.85453143436462 34.52664862573147,100.120359770488 54.56439677812159,115.5 74.60214493051171,101.14567067148164 75.03774815052748,49.36719246720895 55.87120644003153,34.5 35.39785506762564,48.85453143436462 34.96225184760988,100.6330152489245 54.128793558105826,114.98734612995759 74.60214493051171,100.120359770488 75.47335137054324,51.41783603839576 56.7424128819257,34.5 35.833458287641406,47.3165480052121 34.52664862573147,100.120359770488 54.128793558105826,114.98734612995759 74.60214493051171,100.120359770488 75.47335137054324,50.39251436246559 55.87120644003153,34.5 35.39785506762564,48.85453143436462 34.52664862573147,100.120359770488 53.69319033809006,114.98734612995759 74.60214493051171,100.6330152489245 75.47335137054324,50.90517522767186 56.30680966190994,34.5 35.39785506762564,48.85453143436462 34.52664862573147,99.6077042343095 52.82198389619589,114.98734612995759 74.16654171049595,101.65832604002208 75.47335137054324,50.39251436246559 55.0,34.5 35.39785506762564,48.85453143436462 34.52664862573147,100.120359770488 53.69319033809006,114.98734612995759 74.16654171049595,101.65832604002208 75.47335137054324,51.41783603839576 56.30680966190994,34.5 35.833458287641406,47.3165480052121 34.52664862573147,99.6077042343095 52.82198389619589,114.98734612995759 74.60214493051171,101.14567067148164 75.47335137054324,51.41783603839576 57.61361932195723,35.01266258675605 35.833458287641406,47.3165480052121 34.52664862573147,99.09504864457995 52.82198389619589,114.98734612995759 74.16654171049595,101.65832604002208 75.47335137054324,50.39251436246559 55.87120644003153,34.5 35.39785506762564,48.85453143436462 34.52664862573147,100.120359770488 53.69319033809006,114.98734612995759 74.60214493051171,100.120359770488 75.47335137054324,50.39251436246559 55.87120644003153,34.5 35.39785506762564,48.85453143436462 34.52664862573147,100.120359770488 53.69319033809006,114.98734612995759 74.16654171049595,101.65832604002208 75.47335137054324,51.41783603839576 56.7424128819257,34.5 35.833458287641406,47.3165480052121 34.52664862573147,99.09504864457995 52.38638067431748,114.98734612995759 74.16654171049595,101.65832604002208 75.47335137054324,51.930496791377664 56.7424128819257,34.5 35.833458287641406,47.3165480052121 34.091045405715704,98.58239299803972" stroke="#4dd2ff" stroke-linecap="round" stroke-linejoin="round" stroke-width="0.5"><title>2023-10-10 9.7km</title><desc>1696897318000</desc></polyline><polyline fill="none" points="144.3465951681137,115.5 160.46391433291137,107.81018613046035 165.69115298241377,59.10774152074009 152.6230563595891,36.03798759402707 139.99056296050549,35.01266258675605 127.35806956142187,44.24057964980602 124.30884701572359,99.09504864457995 141.7329758424312,114.98734612995759 163.94874010048807,101.65832604002208 165.25554976053536,50.90517522767186 145.65340483002365,34.5 125.18005345761776,48.85453143436462 124.30884701572359,100.120359770488 143.91099194809794,114.98734612995759 164.38434332050383,100.120359770488 164.8199465405196,49.36719246720895 144.78219838999212,34.5 125.18005345761776,48.85453143436462 124.30884701572359,99.6077042343095 144.3465951681137,115.5 164.38434332050383,100.6330152489245 165.25554976053536,50.39251436246559 146.52461127191782,34.5 125.18005345761776,48.85453143436462 124.744450237602,101.14567067148164 144.3465951681137,115.5 164.38434332050383,101.14567067148164 164.8199465405196,49.36719246720895 144.78219838999212,34.5 125.18005345761776,48.85453143436462 124.30884701572359,100.120359770488 144.3465951681137,115.5 164.38434332050383,101.14567067148164" stroke="#4dd2ff" stroke-linecap="round" stroke-linejoin="round" stroke-width="0.5"><title>2023-10-08 2.4km</title><desc>1696725208000</desc></polyline><polyline fill="none" points="58.26702415384352,264.9873461299576 74.38434332236648,251.65832604002208 75.69115298241377,201.41783603839576 64.80107246525586,187.06331237824634 48.68375330045819,185.52532511902973 36.92246634140611,195.77856407826766 34.30884701758623,244.4811458303593 44.763324312865734,262.4240759513341 65.23667568713427,262.4240759513341 75.69115298241377,246.53176985820755 73.5131368804723,195.77856407826766 52.1685790643096,185.01266258675605 34.30884701758623,203.46847872203216 35.61565667949617,252.17098135361448 56.96021449379623,264.9873461299576 75.255549762398,249.6077042343095 74.81994654238224,198.85453143436462 54.78219838999212,184.5 35.180053459480405,200.3925143624656 35.180053459480405,251.14567067148164 56.089008051902056,264.9873461299576 75.255549762398,249.6077042343095 75.255549762398,199.36719246720895 55.21780161187053,184.5 35.61565667949617,198.85453143436462 35.180053459480405,250.6330152489245 55.21780161187053,265.5 74.81994654238224,250.120359770488 75.255549762398,199.36719246720895 55.21780161187053,184.5 35.180053459480405,199.8798534423113 34.744450237601995,250.120359770488 54.346595169976354,264.9873461299576 74.81994654238224,250.120359770488 75.69115298241377,200.3925143624656 55.21780161187053,184.5 35.61565667949617,198.85453143436462 34.744450237601995,250.120359770488 54.346595169976354,264.9873461299576 74.81994654238224,250.120359770488 75.69115298241377,200.3925143624656 55.21780161187053,184.5 35.180053459480405,199.8798534423113 34.744450237601995,250.120359770488 54.78219838999212,265.5 74.81994654238224,250.120359770488 75.69115298241377,200.3925143624656 55.21780161187053,184.5 35.61565667949617,198.85453143436462 34.744450237601995,249.6077042343095 54.78219838999212,265.5 74.81994654238224,250.120359770488 75.69115298241377,200.3925143624656 55.21780161187053,184.5 35.180053459480405,199.8798534423113 34.744450237601995,249.6077042343095 55.21780161187053,265.5 74.81994654238224,250.120359770488 75.255549762398,199.36719246720895 56.089008051902056,184.5 35.61565667949617,198.85453143436462 35.180053459480405,250.6330152489245 54.346595169976354,264.9873461299576 74.81994654238224,251.14567067148164 75.69115298241377,200.3925143624656 56.089008051902056,184.5 35.61565667949617,198.85453143436462 35.180053459480405,250.6330152489245 54.78219838999212,265.5 74.81994654238224,250.120359770488 75.69115298241377,200.3925143624656 56.524611273780465,184.5 35.61565667949617,198.85453143436462 35.180053459480405,250.6330152489245 54.78219838999212,265.5 74.81994654238224,250.120359770488 75.255549762398,199.36719246720895 54.78219838999212,184.5 35.180053459480405,200.3925143624656 35.180053459480405,250.6330152489245 54.78219838999212,265.5 74.81994654238224,250.120359770488 75.69115298241377,200.3925143624656 56.089008051902056,184.5 35.180053459480405,199.8798534423113 34.744450237601995,250.120359770488 54.78219838999212,265.5 74.81994654238224,250.120359770488 75.255549762398,199.36719246720895 55.21780161187053,184.5 35.61565667949617,198.85453143436462 35.180053459480405,250.6330152489245 55.21780161187053,265.5 75.255549762398,249.6077042343095 74.81994654238224,198.85453143436462 54.78219838999212,184.5 35.180053459480405,199.8798534423113 35.180053459480405,250.6330152489245 54.78219838999212,265.5 74.81994654238224,250.120359770488 75.255549762398,199.36719246720895 54.78219838999212,184.5 35.180053459480405,199.8798534423113 34.744450237601995,249.6077042343095 54.78219838999212,265.5 74.81994654238224,250.120359770488 75.69115298241377,200.3925143624656 55.21780161187053,184.5 35.180053459480405,199.8798534423113 35.180053459480405,250.6330152489245 54.78219838999212,265.5 74.81994654238224,250.6330152489245 74.81994654238224,198.85453143436462 54.78219838999212,184.5 35.180053459480405,200.3925143624656 34.744450237601995,250.120359770488 54.346595169976354,264.9873461299576 74.81994654238224,250.120359770488 75.255549762398,199.8798534423113 55.21780161187053,184.5 35.61565667949617,198.3418703461066 34.744450237601995,250.120359770488 55.21780161187053,265.5 74.81994654238224,250.120359770488 75.69115298241377,200.3925143624656 56.089008051902056,184.5 35.61565667949617,198.3418703461066 34.744450237601995,249.6077042343095 54.78219838999212,265.5 75.255549762398,249.6077042343095 75.255549762398,199.36719246720895 55.21780161187053,184.5 35.61565667949617,198.3418703461066 35.180053459480405,250.6330152489245" stroke="#4dd2ff" stroke-linecap="round" stroke-linejoin="round" stroke-width="0.5"><title>2023-10-05 9.7km</title><desc>1696512378000</desc></polyline></svg>