<?xml version="1.0" encoding="utf-8" ?>
<svg baseProfile="full" height="300mm" version="1.1" viewBox="0,0,200,300" width="200mm" xmlns="http://www.w3.org/2000/svg" xmlns:ev="http://www.w3.org/2001/xml-events" xmlns:xlink="http://www.w3.org/1999/xlink"><defs /><rect fill="#222222" height="300" width="200" x="0" y="0" /><text fill="#FFFFFF" style="font-size:12px; font-family:Arial; font-weight:bold;" x="10" y="20">Over 1km Runs</text><text fill="#FFFFFF" style="font-size:4px; font-family:Arial" x="10" y="280">ATHLETE</text><text fill="#FFFFFF" style="font-size:9px; font-family:Arial" x="10" y="290">sun0405</text><text fill="#FFFFFF" style="font-size:4px; font-family:Arial" x="120" y="280">STATISTICS</text><text fill="#FFFFFF" style="font-size:3px; font-family:Arial" x="120" y="285">Number: 6</text><text fill="#FFFFFF" style="font-size:3px; font-family:Arial" x="120" y="290">Weekly: 2.0</text><text fill="#FFFFFF" style="font-size:3px; font-family:Arial" x="141" y="285">Total: 54.1 km</text><text fill="#FFFFFF" style="font-size:3px; font-family:Arial" x="141" y="290">Avg: 9.0 km</text><text fill="#FFFFFF" style="font-size:3px; font-family:Arial" x="167" y="285">Min: 2.3 km</text><text fill="#FFFFFF" style="font-size:3px; font-family:Arial" x="167" y="290">Max: 20.4 km</text><polyline fill="none" points="53.921669172123075,106.0 68.43184510804713,89.84625969314948 66.8631774391979,43.692378549836576 55.882503759115934,34.46154233487323 42.54882857389748,35.38462685747072 31.568154893815517,50.61549258977175 33.92115639708936,97.23083428805694 53.137335339561105,106.0 68.43184510804713,89.38472335692495 66.8631774391979,43.692378549836576 56.27467067539692,34.92308462085202 42.54882857389748,35.38462685747072 31.568154893815517,50.15395200159401 33.92115639708936,97.23083428805694 54.31383609212935,105.53846541233361 68.43184510804713,90.30779597954825 66.8631774391979,43.692378549836576 56.27467067539692,34.92308462085202 42.54882857389748,35.38462685747072 31.568154893815517,50.15395200159401 33.92115639708936,97.23083428805694 53.921669172123075,106.0 68.43184510804713,89.38472335692495 66.8631774391979,43.692378549836576 56.66683759354055,34.92308462085202 42.94099549204111,35.38462685747072 31.568154893815517,49.230870679952204 32.74465564638376,94.92315610079095 52.745168421417475,106.0 68.43184510804713,89.38472335692495 67.64751127548516,46.0000844784081 59.80417293123901,36.30771117750555 46.862664664164186,34.0 31.568154893815517,49.230870679952204 33.92115639708936,97.23083428805694 43.33316241018474,105.07693077484146 57.059004509821534,104.61539608705789 66.8631774391979,94.92315610079095" stroke="#4dd2ff" stroke-linecap="round" stroke-linejoin="round" stroke-width="0.5"><title>2023-10-11 2.3km</title><desc>1696983878000</desc></polyline><polyline fill="none" points="150.77440572716296,105.54430767148733 167.8113316912204,91.87351487530395 167.8113316912204,47.215282193385065 149.2255942746997,34.0 132.5758711732924,46.75958349741995 131.80146544612944,92.32920868508518 149.61279713734984,106.0 167.42412882857025,92.78490244364366 167.8113316912204,47.215282193385065 151.1616085898131,34.0 132.5758711732924,46.75958349741995 131.80146544612944,91.41782101755962 147.67678282409906,105.54430767148733 165.87531737610698,95.97475737798959 168.58573741838336,51.31656822562218 162.77769447490573,39.46839766623452 144.19195705838501,34.911400106269866 131.80146544612944,49.94947332656011 132.5758711732924,94.60767698846757 141.09433415532112,103.72153786569834 154.259231492877,105.08861529408023 167.8113316912204,90.50643315166235 167.42412882857025,46.30388475256041 149.2255942746997,34.0 132.18866831064224,47.670980838127434 131.80146544612944,92.32920868508518 149.2255942746997,105.54430767148733 167.42412882857025,92.32920868508518 167.8113316912204,47.215282193385065 150.00000000186265,34.0 132.5758711732924,46.75958349741995 131.80146544612944,92.32920868508518 149.2255942746997,105.54430767148733 167.42412882857025,93.24059615284204 168.19853455387056,49.03807647852227 151.54881145246327,34.0 132.96307403594255,45.39248711569235 131.80146544612944,91.41782101755962 148.06398568861187,105.54430767148733 160.067274434492,102.81015266524628 167.42412882857025,92.32920868508518 167.8113316912204,47.670980838127434 150.00000000186265,34.0 132.5758711732924,46.75958349741995 131.80146544612944,92.32920868508518 149.2255942746997,105.54430767148733 167.42412882857025,92.32920868508518 168.19853455387056,49.03807647852227 151.1616085898131,34.0 132.96307403594255,45.39248711569235 131.80146544612944,91.41782101755962 148.06398568861187,105.54430767148733 167.0369259659201,93.69628981361166 168.19853455387056,48.12667943350971 150.00000000186265,34.0 132.5758711732924,46.75958349741995 131.80146544612944,92.32920868508518 148.83839141391218,105.54430767148733 167.42412882857025,92.78490244364366 168.19853455387056,49.03807647852227 151.1616085898131,34.0 132.96307403594255,45.39248711569235 131.80146544612944,91.41782101755962 148.06398568861187,105.54430767148733 167.0369259659201,93.69628981361166 168.19853455387056,48.12667943350971 150.00000000186265,34.0 132.5758711732924,46.75958349741995 131.80146544612944,92.32920868508518 149.61279713734984,106.0 167.42412882857025,93.24059615284204 167.8113316912204,47.215282193385065 150.77440572716296,34.0 132.5758711732924,46.75958349741995 132.18866831064224,92.78490244364366 149.2255942746997,105.54430767148733 167.42412882857025,92.32920868508518 168.19853455387056,49.03807647852227 151.54881145246327,34.0 132.96307403594255,45.39248711569235 131.80146544612944,92.32920868508518 149.2255942746997,105.54430767148733 167.42412882857025,92.32920868508518 168.19853455387056,48.12667943350971 150.77440572716296,34.0 132.5758711732924,46.75958349741995 131.80146544612944,92.32920868508518 148.83839141391218,105.54430767148733 167.42412882857025,92.78490244364366 168.19853455387056,48.58237798046321 151.1616085898131,34.0 132.5758711732924,46.75958349741995 131.80146544612944,91.87351487530395 148.06398568861187,105.54430767148733 167.0369259659201,93.69628981361166 168.19853455387056,48.12667943350971 150.00000000186265,34.0 132.5758711732924,46.75958349741995 131.80146544612944,92.32920868508518 148.83839141391218,105.54430767148733 167.0369259659201,93.69628981361166 168.19853455387056,49.03807647852227 151.1616085898131,34.0 132.96307403594255,45.39248711569235 131.80146544612944,91.87351487530395 148.06398568861187,105.54430767148733 167.42412882857025,93.24059615284204 168.19853455387056,49.03807647852227 152.32321717776358,34.45570007758215 132.96307403594255,45.39248711569235 131.80146544612944,91.41782101755962 148.06398568861187,105.54430767148733 167.0369259659201,93.69628981361166 168.19853455387056,48.12667943350971 150.77440572716296,34.0 132.5758711732924,46.75958349741995 131.80146544612944,92.32920868508518 148.83839141391218,105.54430767148733 167.42412882857025,92.32920868508518 168.19853455387056,48.12667943350971 150.77440572716296,34.0 132.5758711732924,46.75958349741995 131.80146544612944,92.32920868508518 148.83839141391218,105.54430767148733 167.0369259659201,93.69628981361166 168.19853455387056,49.03807647852227 151.54881145246327,34.0 132.96307403594255,45.39248711569235 131.80146544612944,91.41782101755962 147.67678282409906,105.54430767148733 167.0369259659201,93.69628981361166 168.19853455387056,49.493774925824255 151.54881145246327,34.0 132.96307403594255,45.39248711569235 131.41426258347929,90.96212710952386" stroke="#4dd2ff" stroke-linecap="round" stroke-linejoin="round" stroke-width="0.5"><title>2023-10-10 9.7km</title><desc>1696897318000</desc></polyline><polyline fill="none" points="49.419195706024766,186.0 63.74570163153112,179.16460989415646 68.39213598705828,135.87354801874608 56.77605010010302,115.36710008373484 45.54716707766056,114.45570007758215 34.318284057080746,122.6582930223085 31.607864014804363,171.41782101755962 47.095978528261185,185.54430767148733 66.84332453459501,173.69628981361166 68.00493312254548,128.5823779804632 50.58080429583788,114.0 32.38226974196732,126.75958349741995 31.607864014804363,172.32920868508518 49.03199284337461,185.54430767148733 67.23052739724517,172.32920868508518 67.61773025989532,127.21528219338506 49.80639857053757,114.0 32.38226974196732,126.75958349741995 31.607864014804363,171.87351487530395 49.419195706024766,186.0 67.23052739724517,172.78490244364366 68.00493312254548,128.1266794335097 51.35521002113819,114.0 32.38226974196732,126.75958349741995 31.995066879317164,173.24059615284204 49.419195706024766,186.0 67.23052739724517,173.24059615284204 67.61773025989532,127.21528219338506 49.80639857053757,114.0 32.38226974196732,126.75958349741995 31.607864014804363,172.32920868508518 49.419195706024766,186.0 67.23052739724517,173.24059615284204" stroke="#4dd2ff" stroke-linecap="round" stroke-linejoin="round" stroke-width="0.5"><title>2023-10-08 2.4km</title><desc>1696725208000</desc></polyline><polyline fill="none" points="152.90402147173882,185.54430767148733 167.23052739724517,173.69628981361166 168.39213598519564,129.03807647852227 158.71206441521645,116.27849989198148 144.3855584897101,114.91140010626987 133.93108119256794,124.02539029205218 131.60786401480436,167.31657407153398 140.90073272399604,183.2658452903852 159.0992672778666,183.2658452903852 168.39213598519564,169.13935098517686 166.45612167194486,124.02539029205218 147.48318139091134,114.45570007758215 131.60786401480436,130.86086997529492 132.76947260461748,174.15198342548683 151.74241288378835,185.54430767148733 168.00493312254548,171.87351487530395 167.61773025989532,126.75958349741995 149.80639856867492,114.0 132.38226974196732,128.1266794335097 132.38226974196732,173.24059615284204 150.96800715848804,185.54430767148733 168.00493312254548,171.87351487530395 168.00493312254548,127.21528219338506 150.19360143318772,114.0 132.76947260461748,126.75958349741995 132.38226974196732,172.78490244364366 150.19360143318772,186.0 167.61773025989532,172.32920868508518 168.00493312254548,127.21528219338506 150.19360143318772,114.0 132.38226974196732,127.67098083812743 131.99506687745452,172.32920868508518 149.41919570602477,185.54430767148733 167.61773025989532,172.32920868508518 168.39213598519564,128.1266794335097 150.19360143318772,114.0 132.76947260461748,126.75958349741995 131.99506687745452,172.32920868508518 149.41919570602477,185.54430767148733 167.61773025989532,172.32920868508518 168.39213598519564,128.1266794335097 150.19360143318772,114.0 132.38226974196732,127.67098083812743 131.99506687745452,172.32920868508518 149.80639856867492,186.0 167.61773025989532,172.32920868508518 168.39213598519564,128.1266794335097 150.19360143318772,114.0 132.76947260461748,126.75958349741995 131.99506687745452,171.87351487530395 149.80639856867492,186.0 167.61773025989532,172.32920868508518 168.39213598519564,128.1266794335097 150.19360143318772,114.0 132.38226974196732,127.67098083812743 131.99506687745452,171.87351487530395 150.19360143318772,186.0 167.61773025989532,172.32920868508518 168.00493312254548,127.21528219338506 150.96800715848804,114.0 132.76947260461748,126.75958349741995 132.38226974196732,172.78490244364366 149.41919570602477,185.54430767148733 167.61773025989532,173.24059615284204 168.39213598519564,128.1266794335097 150.96800715848804,114.0 132.76947260461748,126.75958349741995 132.38226974196732,172.78490244364366 149.80639856867492,186.0 167.61773025989532,172.32920868508518 168.39213598519564,128.1266794335097 151.3552100211382,114.0 132.76947260461748,126.75958349741995 132.38226974196732,172.78490244364366 149.80639856867492,186.0 167.61773025989532,172.32920868508518 168.00493312254548,127.21528219338506 149.80639856867492,114.0 132.38226974196732,128.1266794335097 132.38226974196732,172.78490244364366 149.80639856867492,186.0 167.61773025989532,172.32920868508518 168.39213598519564,128.1266794335097 150.96800715848804,114.0 132.38226974196732,127.67098083812743 131.99506687745452,172.32920868508518 149.80639856867492,186.0 167.61773025989532,172.32920868508518 168.00493312254548,127.21528219338506 150.19360143318772,114.0 132.76947260461748,126.75958349741995 132.38226974196732,172.78490244364366 150.19360143318772,186.0 168.00493312254548,171.87351487530395 167.61773025989532,126.75958349741995 149.80639856867492,114.0 132.38226974196732,127.67098083812743 132.38226974196732,172.78490244364366 149.80639856867492,186.0 167.61773025989532,172.32920868508518 168.00493312254548,127.21528219338506 149.80639856867492,114.0 132.38226974196732,127.67098083812743 131.99506687745452,171.87351487530395 149.80639856867492,186.0 167.61773025989532,172.32920868508518 168.39213598519564,128.1266794335097 150.19360143318772,114.0 132.38226974196732,127.67098083812743 132.38226974196732,172.78490244364366 149.80639856867492,186.0 167.61773025989532,172.78490244364366 167.61773025989532,126.75958349741995 149.80639856867492,114.0 132.38226974196732,128.1266794335097 131.99506687745452,172.32920868508518 149.41919570602477,185.54430767148733 167.61773025989532,172.32920868508518 168.00493312254548,127.67098083812743 150.19360143318772,114.0 132.76947260461748,126.3038847525604 131.99506687745452,172.32920868508518 150.19360143318772,186.0 167.61773025989532,172.32920868508518 168.39213598519564,128.1266794335097 150.96800715848804,114.0 132.76947260461748,126.3038847525604 131.99506687745452,171.87351487530395 149.80639856867492,186.0 168.00493312254548,171.87351487530395 168.00493312254548,127.21528219338506 150.19360143318772,114.0 132.76947260461748,126.3038847525604 132.38226974196732,172.78490244364366" stroke="#4dd2ff" stroke-linecap="round" stroke-linejoin="round" stroke-width="0.5"><title>2023-10-05 9.7km</title><desc>1696512378000</desc></polyline><polyline fill="none" points="63.4354796372354,202.3237684336491 45.050086449831724,194.0 31.261041555553675,208.9827701896429 35.15025934390724,252.68218268128112 52.12139152176678,263.08673140825704 66.61756691895425,246.43943991325796 63.78904489055276,206.90183338150382 56.01060931198299,197.32950953836553 46.11078220792115,195.24856641609222 31.968172062188387,209.39895741664805 34.796694092452526,251.43363493890502 51.76782626658678,262.67054999945685 66.97113217413425,248.52035529655404 64.84974065236747,207.73420824017376 56.01060931198299,196.08094379981048 44.69652119465172,194.4161888496019 30.90747630223632,209.39895741664805 35.15025934390724,254.76309468154795 52.47495677322149,263.50291277165525 66.26400166749954,248.10417231055908 62.37478387542069,203.15614428464323 54.949913550168276,195.24856641609222 43.989390686154366,194.4161888496019 31.61460680887103,209.81514459685422 35.50382459908724,253.93073001643643 42.221564419567585,261.42200550599955 52.828522028401494,261.8381870498415 66.97113217413425,248.10417231055908 63.08191438391805,203.5723321433179 44.34295593947172,194.83237765566446 31.261041555553675,209.81514459685422 35.15025934390724,253.51454761694185 52.828522028401494,262.25436854735017 63.08191438391805,257.2601875932887 67.67826268076897,246.85562308086082 63.4354796372354,202.3237684336491 45.050086449831724,194.83237765566446 30.90747630223632,209.39895741664805 35.85738985426724,253.93073001643643 52.47495677322149,262.25436854735017 66.26400166749954,248.93653823854402 61.66765336878598,201.49139240197837 54.59634829685092,194.4161888496019 42.57512967288494,194.83237765566446 30.90747630223632,210.23133173258975 35.50382459908724,254.76309468154795 45.050086449831724,261.8381870498415 57.77843557856977,261.0058239181526 68.03182793594897,253.51454761694185 71.92104572430253,240.6128708415199 66.26400166749954,205.65327075426467 54.59634829685092,194.83237765566446 43.63582543283701,194.83237765566446 30.553911048918962,210.23133173258975 36.210955107584596,254.76309468154795 45.403651701286435,261.42200550599955 57.07130507193506,261.0058239181526 68.03182793594897,244.77470679441467 62.37478387542069,202.3237684336491 53.88921779021621,195.24856641609222 42.9286949262023,195.66475513018668 31.261041555553675,211.89607982733287 37.271650867536664,255.17927694693208 44.69652119465172,261.42200550599955 56.01060931198299,261.42200550599955 67.67826268076897,246.0232567009516 63.08191438391805,201.0752043190878 53.88921779021621,194.0 41.16086865775287,195.24856641609222 31.261041555553675,211.89607982733287 36.210955107584596,253.51454761694185 52.12139152176678,263.08673140825704 66.26400166749954,250.18508679163642 63.08191438391805,204.4047077225987 47.171477967873216,194.0 31.261041555553675,209.39895741664805 35.50382459908724,253.93073001643643 44.34295593947172,261.0058239181526 57.424870325252414,261.42200550599955 68.38539318740368,244.35852340282872 64.49617539718747,204.8208954455331 54.242783043533564,195.66475513018668 41.86799916625023,195.66475513018668 30.553911048918962,210.64751882455312 36.91808561421931,256.844005554216 55.30347880534828,261.8381870498415 66.97113217413425,246.85562308086082 63.78904489055276,202.73995638126507 54.949913550168276,194.83237765566446 43.63582543283701,194.4161888496019 31.261041555553675,211.89607982733287 36.56452036090195,257.2601875932887 54.242783043533564,262.25436854735017 66.97113217413425,247.6879892796278 64.49617539718747,202.73995638126507 54.949913550168276,194.4161888496019 42.221564419567585,194.0 31.261041555553675,214.39320061425678 34.796694092452526,251.0174522686284 48.232173731550574,262.67054999945685 65.55687115900218,253.93073001643643 64.49617539718747,203.5723321433179 48.93930423818529,194.0 38.33234662748873,197.32950953836553 31.968172062188387,207.73420824017376 34.443128837272525,252.68218268128112 48.232173731550574,262.67054999945685 62.37478387542069,260.589642284438 66.26400166749954,252.68218268128112 64.14261014573276,207.73420824017376 47.171477967873216,194.0 30.90747630223632,208.15039560105652 34.08956358395517,253.93073001643643 42.221564419567585,262.25436854735017 53.18208728171885,262.67054999945685 63.4354796372354,256.844005554216 67.67826268076897,246.0232567009516 62.72834913060069,202.73995638126507 52.47495677322149,195.24856641609222 39.7466076426208,196.49713242496364 30.90747630223632,211.89607982733287 36.56452036090195,256.0116413414944 56.01060931198299,261.0058239181526 66.97113217413425,245.6070734441746 63.08191438391805,203.5723321433179 55.65704405680299,196.08094379981048 44.69652119465172,194.83237765566446 30.90747630223632,208.9827701896429 35.85738985426724,252.68218268128112 52.47495677322149,262.25436854735017 66.61756691895425,248.93653823854402 63.78904489055276,202.73995638126507 54.949913550168276,195.24856641609222 42.221564419567585,195.66475513018668 30.553911048918962,210.64751882455312 36.210955107584596,256.42782347043976 56.3641745634377,261.42200550599955 67.32469742931426,245.19089014246128 63.4354796372354,201.49139240197837 42.57512967288494,196.08094379981048 30.90747630223632,210.64751882455312 35.85738985426724,255.17927694693208 55.30347880534828,261.0058239181526 66.61756691895425,246.85562308086082 63.4354796372354,203.98851995519362 51.76782626658678,196.08094379981048 40.10017289593816,196.91332100424916 30.200345795601606,213.9770139285829 36.210955107584596,254.3469123709947 54.59634829685092,261.8381870498415 67.32469742931426,246.0232567009516 63.08191438391805,202.3237684336491 53.535652535036206,195.24856641609222 41.51443391107023,196.49713242496364 30.553911048918962,211.89607982733287 35.15025934390724,255.59545916575007 53.535652535036206,262.25436854735017 66.26400166749954,245.6070734441746 63.08191438391805,205.65327075426467 52.47495677322149,196.49713242496364 39.39304239116609,197.74569802777842 30.90747630223632,213.56082719867118 37.271650867536664,259.34109711367637 48.58573898486793,263.50291277165525 62.72834913060069,257.2601875932887 65.20330590754747,223.54929627408274 57.424870325252414,197.32950953836553 45.050086449831724,195.24856641609222 33.38243307732046,203.15614428464323 33.38243307732046,248.93653823854402 45.403651701286435,262.67054999945685 65.55687115900218,253.09836517088115 65.55687115900218,211.06370586995035 61.31408811546862,201.0752043190878 49.64643474482,195.66475513018668 31.261041555553675,205.65327075426467 28.078954273834825,223.54929627408274 33.028867825865746,248.10417231055908 48.58573898486793,263.08673140825704 60.960522862151265,259.34109711367637 67.67826268076897,248.52035529655404 63.4354796372354,206.0694583421573 56.3641745634377,197.32950953836553 46.4643474612385,195.24856641609222 36.56452036090195,199.41045153443702 30.90747630223632,209.81514459685422 35.85738985426724,253.93073001643643 50.0,263.08673140825704 66.61756691895425,250.60126955318265 63.78904489055276,207.31802083272487 46.4643474612385,194.83237765566446 31.61460680887103,207.73420824017376 34.796694092452526,254.76309468154795 51.06069575995207,263.919094088953 66.61756691895425,251.0174522686284 62.72834913060069,205.23708312259987 55.65704405680299,196.91332100424916 44.69652119465172,195.24856641609222 30.90747630223632,211.06370586995035 34.443128837272525,253.09836517088115 53.18208728171885,261.8381870498415 67.32469742931426,248.10417231055908 62.72834913060069,203.98851995519362 47.52504322305322,194.83237765566446 35.85738985426724,200.6590161912609 31.261041555553675,210.23133173258975 33.38243307732046,252.68218268128112 41.51443391107023,261.0058239181526 52.47495677322149,262.25436854735017 65.91043641418219,253.09836517088115 62.37478387542069,205.65327075426467 45.050086449831724,195.24856641609222 35.85738985426724,199.41045153443702 31.261041555553675,210.64751882455312 34.443128837272525,252.68218268128112 53.18208728171885,264.75145658897236 64.84974065236747,253.51454761694185 62.02121862396598,205.65327075426467 46.11078220792115,195.24856641609222 30.553911048918962,209.39895741664805 34.443128837272525,253.93073001643643 51.06069575995207,262.25436854735017 65.55687115900218,250.60126955318265 60.960522862151265,203.98851995519362 43.989390686154366,195.66475513018668 31.261041555553675,207.73420824017376 34.796694092452526,246.85562308086082 40.453738149255514,258.92491530044936 50.35356525145471,261.42200550599955 67.67826268076897,248.93653823854402 62.72834913060069,206.0694583421573 45.050086449831724,195.66475513018668 31.261041555553675,210.64751882455312 35.15025934390724,254.3469123709947 52.12139152176678,266.0 66.61756691895425,246.0232567009516 62.02121862396598,205.23708312259987 45.75721695460379,195.66475513018668 31.61460680887103,208.15039560105652 33.028867825865746,250.60126955318265 48.58573898486793,261.8381870498415 60.25339235551655,258.50873344088905 69.09252369590104,247.6879892796278 63.4354796372354,207.31802083272487 46.11078220792115,196.08094379981048 30.90747630223632,210.23133173258975 34.443128837272525,253.09836517088115 41.86799916625023,261.0058239181526 53.535652535036206,262.25436854735017 66.61756691895425,248.52035529655404 62.72834913060069,203.98851995519362 54.949913550168276,197.32950953836553 42.221564419567585,197.74569802777842 28.432519525289536,218.97125117271207 34.796694092452526,254.76309468154795 57.424870325252414,261.0058239181526 66.61756691895425,246.85562308086082 63.08191438391805,204.4047077225987 45.403651701286435,196.08094379981048 30.90747630223632,209.81514459685422 34.443128837272525,253.93073001643643 52.828522028401494,262.25436854735017 68.03182793594897,250.18508679163642 62.37478387542069,204.8208954455331 44.69652119465172,196.49713242496364 31.261041555553675,212.31226673768833 35.85738985426724,256.0116413414944 44.34295593947172,262.25436854735017 56.7177398186177,261.8381870498415 66.26400166749954,250.60126955318265 63.78904489055276,206.0694583421573 45.403651701286435,196.49713242496364 31.261041555553675,211.89607982733287 36.210955107584596,254.76309468154795 55.30347880534828,261.42200550599955 69.79965420253575,241.02905464009382 62.72834913060069,202.73995638126507 49.29286949150264,196.08094379981048 33.73599833250046,204.4047077225987 31.968172062188387,246.0232567009516 45.050086449831724,262.25436854735017 64.84974065236747,253.93073001643643 64.84974065236747,210.64751882455312 50.70713050663471,197.32950953836553 38.685911882668734,199.41045153443702 31.968172062188387,208.56658291863278 34.443128837272525,254.3469123709947 50.70713050663471,263.08673140825704 65.91043641418219,252.26600014581345 64.14261014573276,207.31802083272487 46.11078220792115,196.49713242496364 36.91808561421931,200.6590161912609 31.261041555553675,211.89607982733287 35.85738985426724,255.59545916575007 52.828522028401494,262.25436854735017 66.97113217413425,247.27180620236322 65.55687115900218,209.81514459685422 57.77843557856977,199.41045153443702 44.69652119465172,196.08094379981048 31.261041555553675,209.81514459685422 34.796694092452526,253.51454761694185 39.39304239116609,260.589642284438 50.0,262.67054999945685 65.91043641418219,251.43363493890502 63.08191438391805,208.15039560105652 52.12139152176678,196.91332100424916 39.39304239116609,199.41045153443702 31.61460680887103,208.56658291863278 33.73599833250046,248.52035529655404 46.11078220792115,261.8381870498415 58.132000831887126,260.1734606062528 65.20330590754747,252.68218268128112 62.37478387542069,206.48564588511363 51.06069575995207,197.32950953836553 39.03947713598609,198.5780748713296 33.028867825865746,206.90183338150382 35.50382459908724,251.43363493890502 46.817912716418505,262.25436854735017" stroke="#ff0000" stroke-linecap="round" stroke-linejoin="round" stroke-width="0.5"><title>2023-06-21 20.4km</title><desc>1687349283000</desc></polyline><polyline fill="none" points="161.5720989573747,234.47585333394818 160.24957336112857,204.50819807709195 151.65315699204803,197.11354337632656 139.75042663887143,198.67031405237503 131.15401027165353,212.6812197668478 134.12969285994768,251.2109286163468 149.6693686004728,259.7730299986433 163.5558873489499,248.48661935003474 158.5964163672179,205.28658189694397 144.7098976187408,197.50273610907607 131.81527306698263,211.51364637934603 134.12969285994768,251.6001154850237 150.0,259.7730299986433 162.89462454989552,248.87580651417375 161.9027303531766,208.40011548693292 146.69368601217866,197.11354337632656 131.48464166931808,210.34607261046767 133.7990614604205,252.37848909851164 148.67747440375388,260.940587697085 162.2333617527038,258.2162858110387 165.53967573866248,251.2109286163468 160.9108361583203,206.45415730960667 151.98378839157522,197.50273610907607 138.7585324421525,198.28112144651823 130.82337887212634,212.29202868021093 135.1215870566666,252.37848909851164 152.64505118876696,259.7730299986433 164.21715014614165,244.9839329707902 160.9108361583203,204.50819807709195 142.0648464281112,197.11354337632656 130.82337887212634,214.23798369476572 135.45221845433116,254.71360892173834 152.97568258829415,260.1622159408871 164.54778154566884,244.9839329707902 160.24957336112857,205.6757737430744 151.98378839157522,197.50273610907607 141.0729522332549,197.89192879898474 130.4927474744618,212.6812197668478 134.46032425761223,252.37848909851164 151.98378839157522,259.7730299986433 164.21715014614165,245.3731205156073 159.58831056393683,206.06496554682963 143.38737202435732,197.89192879898474 132.80716726370156,209.17849846347235 135.1215870566666,253.54604919999838 141.7342150323093,260.1622159408871 152.64505118876696,260.55140183959156 165.53967573866248,244.59474538476206 162.2333617527038,207.23254070756957 154.62883958220482,198.28112144651823 143.7180034238845,197.50273610907607 132.14590446837246,210.34607261046767 133.7990614604205,251.2109286163468 152.3144197911024,266.0 162.2333617527038,251.6001154850237 161.9027303531766,209.95688127051108 148.34684300608933,197.11354337632656 132.14590446837246,208.01092393649742 133.13779866322875,248.87580651417375 148.67747440375388,260.1622159408871 162.56399315223098,249.26499363733456 162.2333617527038,206.06496554682963 147.6855802088976,197.50273610907607 131.81527306698263,210.34607261046767 134.12969285994768,251.98930231295526 141.4035836327821,258.99465798935853 153.30631398782134,260.1622159408871 164.8784129433334,244.20555775542744 161.5720989573747,206.45415730960667 153.96757678501308,198.67031405237503 143.05674062483013,198.28112144651823 131.48464166931808,214.6271745711565 135.78284985385835,252.76767584029585 152.3144197911024,260.940587697085 164.54778154566884,244.59474538476206 161.5720989573747,206.45415730960667 152.97568258829415,198.67031405237503 141.7342150323093,198.67031405237503 130.82337887212634,212.6812197668478 134.79095565713942,253.93523581582122 152.64505118876696,260.55140183959156 165.20904434286058,244.59474538476206 161.24146755598485,204.50819807709195 143.38737202435732,197.11354337632656 130.4927474744618,211.12445516488515 133.13779866322875,251.2109286163468 144.7098976187408,260.55140183959156 160.24957336112857,254.71360892173834 169.5072525255382,210.73526390944608 164.21715014614165,202.56223778938875 149.6693686004728,197.50273610907607 131.81527306698263,207.6217323425226 133.46843006275594,249.26499363733456 145.37116041779518,261.71895928378217 154.29820818267763,260.55140183959156 162.56399315223098,250.0433677553665 163.22525594942272,209.17849846347235 146.69368601217866,197.11354337632656 131.48464166931808,209.95688127051108 133.7990614604205,251.2109286163468 148.01621160656214,260.940587697085 158.5964163672179,257.4379134643823 164.21715014614165,246.9298702699598 162.89462454989552,209.17849846347235 149.6693686004728,194.0 131.48464166931808,211.12445516488515 132.80716726370156,247.70824489416555 138.42790104448795,256.659540948458 148.67747440375388,260.1622159408871 164.21715014614165,247.70824489416555 161.9027303531766,206.45415730960667 145.040529018268,197.89192879898474 131.15401027165353,210.34607261046767 134.12969285994768,249.65418071765453 150.99189419671893,259.3838440142572 163.88651874661446,246.15149547648616 162.56399315223098,208.78930699708872 147.3549488093704,197.50273610907607 131.15401027165353,209.95688127051108 134.12969285994768,249.65418071765453 148.34684300608933,260.55140183959156 163.88651874661446,246.5406828946434 161.9027303531766,208.01092393649742 146.3630546145141,197.11354337632656 130.82337887212634,208.78930699708872 134.46032425761223,248.87580651417375 145.70179181359708,259.3838440142572 157.27389077097178,257.8270996590145 163.22525594942272,250.82174170506187 165.53967573866248,212.29202868021093 156.2819965761155,199.05950661678798 139.0891638416797,197.50273610907607 130.82337887212634,214.6271745711565 134.79095565713942,251.98930231295526 151.65315699204803,260.1622159408871 160.58020475879312,253.93523581582122 164.21715014614165,243.0379946171306 159.25767916440964,204.8973900077399 152.3144197911024,198.28112144651823 140.74232083559036,198.67031405237503 130.82337887212634,211.90283755096607 135.1215870566666,253.54604919999838 144.37926622107625,259.7730299986433 156.61262797378004,257.4379134643823 164.21715014614165,246.5406828946434" stroke="#4dd2ff" stroke-linecap="round" stroke-linejoin="round" stroke-width="0.5"><title>2023-06-19 9.6km</title><desc>1687176081000</desc></polyline></svg>