<?xml version="1.0" encoding="utf-8" ?>
<svg baseProfile="full" height="300mm" version="1.1" viewBox="0,0,200,300" width="200mm" xmlns="http://www.w3.org/2000/svg" xmlns:ev="http://www.w3.org/2001/xml-events" xmlns:xlink="http://www.w3.org/1999/xlink"><defs /><rect fill="#222222" height="300" width="200" x="0" y="0" /><text fill="#FFFFFF" style="font-size:12px; font-family:Arial; font-weight:bold;" x="10" y="20">running recording</text><text fill="#FFFFFF" style="font-size:4px; font-family:Arial" x="10" y="280">ATHLETE</text><text fill="#FFFFFF" style="font-size:9px; font-family:Arial" x="10" y="290">sun0405</text><text fill="#FFFFFF" style="font-size:4px; font-family:Arial" x="120" y="280">STATISTICS</text><text fill="#FFFFFF" style="font-size:3px; font-family:Arial" x="120" y="285">Number: 1</text><text fill="#FFFFFF" style="font-size:3px; font-family:Arial" x="120" y="290">Weekly: 1.0</text><text fill="#FFFFFF" style="font-size:3px; font-family:Arial" x="141" y="285">Total: 20.4 km</text><text fill="#FFFFFF" style="font-size:3px; font-family:Arial" x="141" y="290">Avg: 20.4 km</text><text fill="#FFFFFF" style="font-size:3px; font-family:Arial" x="167" y="285">Min: 20.4 km</text><text fill="#FFFFFF" style="font-size:3px; font-family:Arial" x="167" y="290">Max: 20.4 km</text><polyline fill="none" points="130.22982918843627,87.72847897559404 88.8626945130527,69.0 57.837343502789736,102.71123292669654 66.58808352798223,201.0349110327661 104.77313092723489,224.44514566846192 137.38952557370067,186.98873980436474 131.02535101026297,98.0291251083836 113.52387095615268,76.49139646161348 91.2492599748075,71.80927443690598 59.42838714644313,103.64765418786556 65.79256171360612,198.22567861247808 103.97760910540819,223.50873749889433 138.18504739552736,191.67079941742122 133.41191647201777,99.90196854062378 113.52387095615268,73.68212354928255 88.067172691226,69.93642491195351 57.04182168468833,103.64765418786556 66.58808352798223,205.71696303319186 105.5686527453363,225.38155373651534 136.59400375932455,190.7343876985833 127.84326372295618,89.60132464021444 111.13730549439788,71.80927443690598 86.47612904757261,69.93642491195351 58.63286532461643,104.5840753428638 67.38360535353422,203.84414253756404 82.49851994588971,220.6995123885572 106.36417456716299,221.63592086266726 138.18504739552736,190.7343876985833 129.43430736660957,90.53774732258171 87.27165086939931,70.87284972518682 57.837343502789736,104.5840753428638 66.58808352798223,202.9077321384102 106.36417456716299,222.57232923153788 129.43430736660957,211.3354220846668 139.77609103545547,187.92515193205327 130.22982918843627,87.72847897559404 88.8626945130527,70.87284972518682 57.04182168468833,103.64765418786556 68.17912717536092,203.84414253756404 105.5686527453363,222.57232923153788 136.59400375932455,192.60721103660762 126.25222008302808,85.855632904917 110.34178366884589,69.93642491195351 83.29404176771641,70.87284972518682 57.04182168468833,105.52049639821053 67.38360535353422,205.71696303319186 88.8626945130527,221.63592086266726 117.50148005783558,219.76310381572694 140.57161286100745,202.9077321384102 149.32235288619995,173.87895939312875 136.59400375932455,95.21985919680446 110.34178366884589,70.87284972518682 85.6806072294712,70.87284972518682 56.24629986286163,105.52049639821053 68.97464899346232,205.71696303319186 89.65821633115411,220.6995123885572 115.91043641790748,219.76310381572694 140.57161286100745,183.24309028778225 127.84326372295618,87.72847897559404 108.75074003264308,71.80927443690598 84.0895635895431,72.74569904245436 57.837343502789736,109.26617961190641 71.36121445894241,206.65337313059717 88.067172691226,220.6995123885572 113.52387095615268,220.6995123885572 139.77609103545547,186.0523275770247 129.43430736660957,84.9192097177729 108.75074003264308,69.0 80.11195448413491,71.80927443690598 57.837343502789736,109.26617961190641 68.97464899346232,202.9077321384102 104.77313092723489,224.44514566846192 136.59400375932455,195.41644528135657 129.43430736660957,92.4105923762545 93.63582543283701,69.0 57.837343502789736,103.64765418786556 67.38360535353422,203.84414253756404 87.27165086939931,219.76310381572694 116.70595823600888,220.6995123885572 141.36713467538357,182.3066776562482 132.61639465019107,93.34701475221664 109.54626185074449,72.74569904245436 81.7029981277883,72.74569904245436 56.24629986286163,106.45691735576838 70.56569263339043,210.39901249762625 111.93282731622458,221.63592086266726 138.18504739552736,187.92515193205327 131.02535101026297,88.66490185819566 111.13730549439788,70.87284972518682 85.6806072294712,69.93642491195351 57.837343502789736,109.26617961190641 69.77017081528902,211.3354220846668 109.54626185074449,222.57232923153788 138.18504739552736,189.79797587916255 132.61639465019107,88.66490185819566 111.13730549439788,69.93642491195351 82.49851994588971,69.0 57.837343502789736,114.8847013823688 65.79256171360612,197.28926760423928 96.0223908983171,223.50873749889433 135.00296011194587,203.84414253756404 132.61639465019107,90.53774732258171 97.61343454197049,69.0 73.74777991697192,76.49139646161348 59.42838714644313,99.90196854062378 64.99703989177942,201.0349110327661 96.0223908983171,223.50873749889433 127.84326372295618,218.82669513951987 136.59400375932455,201.0349110327661 131.82087283208966,99.90196854062378 93.63582543283701,69.0 57.04182168468833,100.83839010260999 64.20151806995273,203.84414253756404 82.49851994588971,222.57232923153788 107.15969638898969,223.50873749889433 130.22982918843627,210.39901249762625 139.77609103545547,186.0523275770247 128.63878554850817,88.66490185819566 105.5686527453363,71.80927443690598 76.92986720427871,74.61854795645922 57.04182168468833,109.26617961190641 69.77017081528902,208.52619301807135 113.52387095615268,219.76310381572694 138.18504739552736,185.11591525003314 129.43430736660957,90.53774732258171 112.72834913432598,73.68212354928255 88.067172691226,70.87284972518682 57.04182168468833,102.71123292669654 68.17912717536092,201.0349110327661 105.5686527453363,222.57232923153788 137.38952557370067,192.60721103660762 131.02535101026297,88.66490185819566 111.13730549439788,71.80927443690598 82.49851994588971,72.74569904245436 56.24629986286163,106.45691735576838 68.97464899346232,209.46260280907154 114.31939277425408,220.6995123885572 138.98056922107935,184.1795028205961 130.22982918843627,85.855632904917 83.29404176771641,73.68212354928255 57.04182168468833,106.45691735576838 68.17912717536092,206.65337313059717 111.93282731622458,219.76310381572694 137.38952557370067,187.92515193205327 130.22982918843627,91.4741698987782 103.97760910540819,73.68212354928255 77.72538902238011,75.55497225932777 55.45077804476023,113.94828133936971 68.97464899346232,204.78055283427238 110.34178366884589,221.63592086266726 138.98056922107935,186.0523275770247 129.43430736660957,87.72847897559404 107.9552182070911,71.80927443690598 80.90747630596161,74.61854795645922 56.24629986286163,109.26617961190641 66.58808352798223,207.58978312276304 107.9552182070911,222.57232923153788 136.59400375932455,185.11591525003314 129.43430736660957,95.21985919680446 105.5686527453363,74.61854795645922 76.13434538245201,77.42782056238502 57.04182168468833,113.01186119671911 71.36121445894241,216.017468505539 96.8179127201438,225.38155373651534 128.63878554850817,211.3354220846668 134.20743829384446,135.48591661639512 116.70595823600888,76.49139646161348 88.8626945130527,71.80927443690598 62.610474426299334,89.60132464021444 62.610474426299334,192.60721103660762 89.65821633115411,223.50873749889433 135.00296011194587,201.97132163494825 135.00296011194587,107.39333820715547 125.45669826492667,84.9192097177729 99.2044781818986,72.74569904245436 57.837343502789736,95.21985919680446 50.67764711752534,135.48591661639512 61.81495261192322,190.7343876985833 96.8179127201438,224.44514566846192 124.66117644682527,216.017468505539 139.77609103545547,191.67079941742122 130.22982918843627,96.15628127008677 114.31939277425408,76.49139646161348 92.0447817929089,71.80927443690598 69.77017081528902,81.17351595312357 57.04182168468833,104.5840753428638 68.17912717536092,203.84414253756404 100.00000000372529,224.44514566846192 137.38952557370067,196.35285649448633 131.02535101026297,98.96554687339813 92.0447817929089,70.87284972518682 58.63286532461643,99.90196854062378 65.79256171360612,205.71696303319186 102.3865654617548,226.31796170026064 137.38952557370067,197.28926760423928 128.63878554850817,94.28343702573329 112.72834913432598,75.55497225932777 88.067172691226,71.80927443690598 57.04182168468833,107.39333820715547 64.99703989177942,201.97132163494825 107.15969638898969,221.63592086266726 138.98056922107935,190.7343876985833 128.63878554850817,91.4741698987782 94.4313472546637,70.87284972518682 68.17912717536092,83.98278643097728 57.837343502789736,105.52049639821053 62.610474426299334,201.0349110327661 80.90747630596161,219.76310381572694 105.5686527453363,222.57232923153788 135.79848193377256,201.97132163494825 127.84326372295618,95.21985919680446 88.8626945130527,71.80927443690598 68.17912717536092,81.17351595312357 57.837343502789736,106.45691735576838 64.99703989177942,201.0349110327661 107.15969638898969,228.1907773250714 133.41191647201777,202.9077321384102 127.04774190858006,95.21985919680446 91.2492599748075,71.80927443690598 56.24629986286163,103.64765418786556 64.99703989177942,203.84414253756404 102.3865654617548,222.57232923153788 135.00296011194587,196.35285649448633 124.66117644682527,91.4741698987782 86.47612904757261,72.74569904245436 57.837343502789736,99.90196854062378 65.79256171360612,187.92515193205327 78.52091084048152,215.08105942606926 100.7955218218267,220.6995123885572 139.77609103545547,192.60721103660762 128.63878554850817,96.15628127008677 88.8626945130527,72.74569904245436 57.837343502789736,106.45691735576838 66.58808352798223,204.78055283427238 104.77313092723489,231.0 137.38952557370067,186.0523275770247 127.04774190858006,94.28343702573329 90.4537381529808,72.74569904245436 58.63286532461643,100.83839010260999 61.81495261192322,196.35285649448633 96.8179127201438,221.63592086266726 123.07013280317187,214.1446502422914 142.95817832276225,189.79797587916255 130.22982918843627,98.96554687339813 91.2492599748075,73.68212354928255 57.04182168468833,105.52049639821053 64.99703989177942,201.97132163494825 81.7029981277883,219.76310381572694 107.9552182070911,222.57232923153788 137.38952557370067,191.67079941742122 128.63878554850817,91.4741698987782 111.13730549439788,76.49139646161348 82.49851994588971,77.42782056238502 51.473168939352036,125.18531513866037 65.79256171360612,205.71696303319186 116.70595823600888,219.76310381572694 137.38952557370067,187.92515193205327 129.43430736660957,92.4105923762545 89.65821633115411,73.68212354928255 57.04182168468833,104.5840753428638 64.99703989177942,203.84414253756404 106.36417456716299,222.57232923153788 140.57161286100745,195.41644528135657 127.84326372295618,93.34701475221664 88.067172691226,74.61854795645922 57.837343502789736,110.20260015968233 68.17912717536092,208.52619301807135 87.27165086939931,222.57232923153788 115.11491459608078,221.63592086266726 136.59400375932455,196.35285649448633 131.02535101026297,96.15628127008677 89.65821633115411,74.61854795645922 57.837343502789736,109.26617961190641 68.97464899346232,205.71696303319186 111.93282731622458,220.6995123885572 144.54922196269035,174.81537294015288 128.63878554850817,88.66490185819566 98.4089563600719,73.68212354928255 63.40599625185132,92.4105923762545 59.42838714644313,186.0523275770247 88.8626945130527,222.57232923153788 133.41191647201777,203.84414253756404 133.41191647201777,106.45691735576838 101.59104364365339,76.49139646161348 74.54330173879862,81.17351595312357 59.42838714644313,101.77481156680733 64.99703989177942,204.78055283427238 101.59104364365339,224.44514566846192 135.79848193377256,200.09850032813847 131.82087283208966,98.96554687339813 91.2492599748075,74.61854795645922 70.56569263339043,83.98278643097728 57.837343502789736,109.26617961190641 68.17912717536092,207.58978312276304 106.36417456716299,222.57232923153788 138.18504739552736,188.86156395543367 135.00296011194587,104.5840753428638 117.50148005783558,81.17351595312357 88.067172691226,73.68212354928255 57.837343502789736,104.5840753428638 65.79256171360612,202.9077321384102 76.13434538245201,218.82669513951987 100.00000000372529,223.50873749889433 135.79848193377256,198.22567861247808 129.43430736660957,100.83839010260999 104.77313092723489,75.55497225932777 76.13434538245201,81.17351595312357 58.63286532461643,101.77481156680733 63.40599625185132,191.67079941742122 91.2492599748075,221.63592086266726 118.29700187593699,217.8902863636613 134.20743829384446,201.0349110327661 127.84326372295618,97.09270324092358 102.3865654617548,76.49139646161348 75.33882356062531,79.30066846031696 61.81495261192322,98.0291251083836 67.38360535353422,198.22567861247808 92.8403036184609,222.57232923153788" stroke="yellow" stroke-linecap="round" stroke-linejoin="round" stroke-width="0.5"><title>2023-06-21 20.4km</title><desc>1687349283000</desc></polyline></svg>